<svg id="Layer_1" data-name="Layer 1" xmlns="http://www.w3.org/2000/svg" viewBox="0 0 118.65 33.53"><defs><style>.cls-1{fill:#231f20;}.cls-2{fill:#fff;}.cls-3{fill:#ee3124;}</style></defs><title>adobe_logo</title><rect class="cls-1" width="118.65" height="33.53"/><path class="cls-2" d="M246.88,279.16l-1.12,5.62h-4.12l5.15-23.4h5.05l4.67,23.4h-4.15l-1.09-5.62Zm4-3.3-.86-5.07c-.25-1.46-.56-3.74-.8-5.32h-.09c-.25,1.59-.6,3.94-.86,5.33l-.92,5.06Z" transform="translate(-204.56 -256.15)"/><path class="cls-2" d="M270.12,260.76v19.17c0,1.52.08,3.39.14,4.85h-3.66l-.24-2h-.09a4.07,4.07,0,0,1-3.54,2.23c-3.5,0-5.24-3.85-5.24-8.71,0-5.92,2.59-8.8,5.41-8.8a3,3,0,0,1,2.91,1.76h.07v-8.55Zm-4.23,13.57a5.7,5.7,0,0,0-.06-1c-.16-1.16-.78-2.2-1.77-2.2-1.7,0-2.33,2.45-2.33,5.3,0,3.29.89,5.16,2.27,5.16.63,0,1.35-.33,1.75-1.7a3.46,3.46,0,0,0,.14-1.07Z" transform="translate(-204.56 -256.15)"/><path class="cls-2" d="M278.86,285.06c-3.9,0-6.35-3.13-6.35-8.71,0-6.09,3.14-8.8,6.44-8.8,3.85,0,6.26,3.27,6.26,8.71,0,7-3.78,8.81-6.32,8.81Zm.08-3.24c1.62,0,2-3,2-5.55s-.4-5.5-2.08-5.5-2.16,3.11-2.16,5.5c0,2.88.48,5.55,2.2,5.55Z" transform="translate(-204.56 -256.15)"/><path class="cls-2" d="M287.58,260.76h4.23v8.84h.07a4,4,0,0,1,3.56-2.05c3.19,0,4.79,3.62,4.79,8.34,0,6-2.39,9.18-5.48,9.18-1.48,0-2.46-.66-3.35-2.31h-.09l-.24,2h-3.63c.06-1.41.14-3.33.14-4.85Zm4.23,18a3.45,3.45,0,0,0,.17,1.08c.42,1.42,1.15,1.77,1.72,1.77,1.63,0,2.3-2.07,2.3-5.38,0-3-.7-5.08-2.32-5.08-.8,0-1.48.87-1.71,1.8a4.45,4.45,0,0,0-.16,1.07Z" transform="translate(-204.56 -256.15)"/><path class="cls-2" d="M306.11,277.67c.05,3.06,1.67,4.06,3.67,4.06a8.91,8.91,0,0,0,3.17-.59l.57,3A12.4,12.4,0,0,1,309,285c-4.54,0-7-3.09-7-8.37,0-5.67,2.88-9.07,6.64-9.07s5.64,3,5.64,7.92a15.34,15.34,0,0,1-.12,2.25Zm4.26-3c0-2.38-.68-4.05-2-4.05-1.53,0-2.18,2.24-2.23,4.05Z" transform="translate(-204.56 -256.15)"/><polygon class="cls-3" points="19.29 4.61 28.41 4.61 28.41 29.35 19.29 4.61"/><polygon class="cls-3" points="12.86 4.61 3.73 4.61 3.73 29.35 12.86 4.61"/><polygon class="cls-3" points="16.08 13.73 21.89 29.35 18.08 29.35 16.34 24.37 12.09 24.37 16.08 13.73"/></svg>