<svg id="Layer_1" data-name="Layer 1" xmlns="http://www.w3.org/2000/svg" viewBox="0 0 345.13 449.52"><defs><style>.cls-1{fill:#fff;}</style></defs><title>if</title><path class="cls-1" d="M551.35,394.06c0-24.41,0-27.54-16.9-38.81l-5.63-3.76c-2.5-2.5-2.5-9.39.63-11.27,14.4-5,50.08-21.28,64.48-30.67,3.13,0,5.63,1.25,6.26,3.76-1.25,21.91-2.5,52-2.5,77.63V503.62c0,45.07,1.25,51.33,23.79,54.46L634.61,560c4.38,3.13,3.13,13.77-1.25,15.65-18.78-1.25-36.93-1.88-58.84-1.88-22.54,0-41.32.63-58.84,1.88-4.38-1.88-5.63-12.52-1.25-15.65l13.15-1.88c23.16-3.13,23.79-9.39,23.79-54.46Zm52-178.41c0,22.54-15.65,32.55-33.18,32.55-19.41,0-31.93-14.4-31.93-31.3,0-20.66,15-33.8,33.8-33.8s31.27,15,31.27,32.55Z" transform="translate(-511.7 -126.13)"/><path class="cls-1" d="M720.36,353.37c-10.64,0-10.64,1.25-10.64,18.15v132.1c0,45.07,1.25,52.58,23.79,54.46L756,560c4.38,3.13,3.13,13.77-1.25,15.65-28.17-1.25-46.32-1.88-68.23-1.88-22.54,0-41.32.63-60.1,1.88-4.38-1.88-5.63-12.52-1.25-15.65l14.4-1.88c23.16-3.13,23.79-9.39,23.79-54.46V371.53c0-16.9,0-18.15-12.52-18.15H629c-3.76-2.5-4.38-8.14-1.88-11.89L654,328.33c5-2.5,9.39-6.26,9.39-12.52,0-36.31,4.38-75.12,19.41-110.18,15.65-35.68,50.71-79.5,112.68-79.5,33.18,0,61.35,15,61.35,37.56,0,12.52-11.89,22.54-23.79,22.54-6.89,0-10.64-2.5-15-7.51C806.15,165,788.62,151.18,768,151.18c-19.41,0-35.06,11.89-44.45,34.43-11.27,28.8-13.77,74.5-13.77,105.8v18.15c0,16.9,0,17.53,10.64,17.53h71.36c6.89,6.26,2.5,23.79-4.38,26.29Z" transform="translate(-511.7 -126.13)"/></svg>